<svg width="355" height="318" viewBox="0 0 355 318" fill="none" xmlns="http://www.w3.org/2000/svg">
<path d="M29.8129 274.536H326.82" stroke="#263238" stroke-linecap="round" stroke-linejoin="round"/>
<path d="M198.09 72.116V62.1308L189.74 61.4948C189.252 59.9332 188.561 58.4283 187.681 57.011L193.07 51.287L185.189 44.2274L178.799 49.0547C177.23 48.2635 175.562 47.6423 173.829 47.2039L173.119 39.7246H161.88L161.17 47.2039C159.437 47.6423 157.769 48.2635 156.2 49.0547L149.81 44.2274L141.929 51.287L147.318 57.011C146.438 58.4283 145.747 59.9332 145.259 61.4948L136.909 62.1308V72.116L145.259 72.752C145.75 74.3027 146.441 75.7968 147.318 77.204L141.929 82.928L149.81 89.9876L156.2 85.1604C157.769 85.9515 159.437 86.5728 161.17 87.0112L161.88 94.4905H173.027L173.737 87.0112C175.481 86.5734 177.161 85.9522 178.742 85.1604L185.132 89.9876L193.014 82.928L187.625 77.204C188.502 75.7968 189.193 74.3027 189.684 72.752L198.09 72.116ZM167.489 78.7241C164.928 78.7241 162.424 78.0437 160.294 76.769C158.164 75.4943 156.505 73.6826 155.524 71.5628C154.544 69.4431 154.288 67.1106 154.787 64.8603C155.287 62.61 156.521 60.5429 158.332 58.9206C160.143 57.2982 162.45 56.1933 164.963 55.7457C167.475 55.2981 170.079 55.5278 172.445 56.4059C174.811 57.2839 176.834 58.7708 178.257 60.6785C179.68 62.5862 180.439 64.8291 180.439 67.1234C180.438 68.6488 180.102 70.159 179.449 71.5677C178.796 72.9764 177.84 74.2561 176.634 75.3335C175.429 76.4109 173.998 77.2649 172.424 77.8466C170.85 78.4284 169.163 78.7266 167.461 78.7241H167.489Z" stroke="#263238" stroke-linecap="round" stroke-linejoin="round"/>
<path d="M317.86 169.71V164.928L313.856 164.616C313.62 163.868 313.289 163.146 312.869 162.466L315.453 159.712L311.69 156.329L308.623 158.644C307.865 158.265 307.059 157.968 306.223 157.76L305.875 154.173H300.529L300.188 157.76C299.351 157.967 298.546 158.264 297.788 158.644L294.714 156.329L290.937 159.712L293.521 162.466C293.096 163.145 292.762 163.867 292.527 164.616L288.523 164.928V169.71L292.527 170.022C292.762 170.771 293.096 171.493 293.521 172.172L290.915 174.9L294.693 178.284L297.767 175.968C298.524 176.348 299.33 176.645 300.167 176.853L300.508 180.44H305.854L306.202 176.853C307.038 176.644 307.844 176.347 308.602 175.968L311.669 178.284L315.453 174.9L312.869 172.146C313.289 171.466 313.62 170.745 313.856 169.996L317.86 169.71ZM303.184 172.89C301.955 172.891 300.753 172.566 299.731 171.955C298.708 171.345 297.911 170.476 297.44 169.459C296.968 168.443 296.844 167.323 297.083 166.243C297.322 165.164 297.913 164.171 298.782 163.392C299.65 162.614 300.757 162.083 301.963 161.868C303.168 161.652 304.417 161.762 305.553 162.183C306.688 162.604 307.659 163.318 308.342 164.233C309.025 165.148 309.39 166.224 309.39 167.325C309.389 168.056 309.227 168.78 308.914 169.454C308.601 170.129 308.143 170.742 307.565 171.258C306.987 171.775 306.302 172.184 305.548 172.463C304.794 172.742 303.986 172.885 303.17 172.884L303.184 172.89Z" stroke="#263238" stroke-linecap="round" stroke-linejoin="round"/>
<path d="M313.82 82.5528C314.387 80.3547 314.308 78.0626 313.592 75.8999C312.876 73.7371 311.546 71.7775 309.733 70.212C307.919 68.6465 305.684 67.5287 303.245 66.9673C300.806 66.406 298.246 66.4203 295.814 67.009C294.333 64.6562 292.043 62.7953 289.285 61.7034C286.527 60.6116 283.449 60.3474 280.51 60.9503C277.57 61.5531 274.927 62.9906 272.974 65.0486C271.021 67.1066 269.863 69.6748 269.672 72.3704C268.127 72.1057 266.537 72.13 265.002 72.4417C263.468 72.7535 262.022 73.346 260.755 74.1821C259.489 75.0182 258.429 76.0798 257.642 77.3003C256.855 78.5208 256.358 79.8738 256.182 81.2744C254.6 81.4236 253.136 82.0963 252.078 83.1609C251.02 84.2256 250.443 85.6056 250.461 87.0309C250.479 88.4562 251.09 89.8244 252.174 90.8676C253.258 91.9108 254.738 92.5541 256.324 92.6716H309.773C311.082 92.6629 312.356 92.2945 313.424 91.6161C314.491 90.9377 315.3 89.982 315.742 88.8783C316.183 87.7745 316.235 86.576 315.892 85.4447C315.548 84.3134 314.825 83.304 313.82 82.5528Z" stroke="#263238" stroke-linecap="round" stroke-linejoin="round"/>
<path d="M284.447 88.2959V101.493" stroke="#263238" stroke-linecap="round" stroke-linejoin="round"/>
<path d="M284.447 80.384V85.6565" stroke="#263238" stroke-linecap="round" stroke-linejoin="round"/>
<path d="M284.447 75.4487V78.2725" stroke="#263238" stroke-linecap="round" stroke-linejoin="round"/>
<path d="M281.664 99.9538L284.447 103.038L287.231 99.9538" stroke="#263238" stroke-linecap="round" stroke-linejoin="round"/>
<path d="M150.974 237.323C151.54 235.125 151.46 232.833 150.742 230.67C150.025 228.508 148.695 226.549 146.881 224.983C145.067 223.418 142.832 222.3 140.392 221.739C137.953 221.178 135.393 221.192 132.962 221.78C131.482 219.425 129.192 217.563 126.433 216.47C123.675 215.377 120.595 215.113 117.655 215.717C114.715 216.321 112.072 217.76 110.121 219.82C108.169 221.88 107.013 224.451 106.827 227.147C106.125 227.027 105.411 226.965 104.697 226.963C101.888 226.961 99.1767 227.886 97.0812 229.562C94.9857 231.237 93.6526 233.545 93.3366 236.045C91.7541 236.193 90.2902 236.865 89.2316 237.93C88.1729 238.994 87.5955 240.373 87.6124 241.799C87.6292 243.224 88.2391 244.592 89.3228 245.636C90.4064 246.68 91.8858 247.324 93.4715 247.442H146.97C148.277 247.43 149.548 247.059 150.612 246.379C151.677 245.699 152.482 244.743 152.921 243.64C153.36 242.537 153.411 241.34 153.066 240.211C152.722 239.081 151.999 238.074 150.996 237.323H150.974Z" stroke="#263238" stroke-linecap="round" stroke-linejoin="round"/>
<path d="M121.58 244.955V231.765" stroke="#263238" stroke-linecap="round" stroke-linejoin="round"/>
<path d="M121.58 252.874V247.595" stroke="#263238" stroke-linecap="round" stroke-linejoin="round"/>
<path d="M121.58 257.809V254.985" stroke="#263238" stroke-linecap="round" stroke-linejoin="round"/>
<path d="M124.364 233.304L121.58 230.219L118.797 233.304" stroke="#263238" stroke-linecap="round" stroke-linejoin="round"/>
<path d="M37.9708 69.8964H216.5C217.299 69.8964 218.064 70.1805 218.629 70.6862C219.194 71.1919 219.511 71.8778 219.511 72.593V80.136H34.9604V72.593C34.9604 71.8778 35.2776 71.1919 35.8421 70.6862C36.4067 70.1805 37.1724 69.8964 37.9708 69.8964Z" fill="#335D99" stroke="#263238" stroke-linecap="round" stroke-linejoin="round"/>
<path d="M229.564 82.0249H43.0402V199.602H229.564V82.0249Z" fill="white" stroke="#263238" stroke-linecap="round" stroke-linejoin="round"/>
<path d="M232.419 75.0098C232.419 75.513 232.252 76.0048 231.94 76.4232C231.628 76.8416 231.184 77.1676 230.665 77.3602C230.146 77.5527 229.575 77.6031 229.024 77.505C228.474 77.4068 227.968 77.1645 227.57 76.8087C227.173 76.4529 226.903 75.9996 226.793 75.5061C226.683 75.0127 226.74 74.5011 226.955 74.0363C227.17 73.5714 227.534 73.1741 228.001 72.8946C228.468 72.615 229.017 72.4658 229.579 72.4658C230.332 72.4658 231.054 72.7339 231.587 73.211C232.119 73.688 232.419 74.3351 232.419 75.0098Z" fill="white" stroke="#263238" stroke-linecap="round" stroke-linejoin="round"/>
<path d="M222.365 75.0098C222.365 75.513 222.198 76.0048 221.886 76.4232C221.574 76.8416 221.131 77.1676 220.612 77.3602C220.093 77.5527 219.522 77.6031 218.971 77.505C218.42 77.4068 217.914 77.1645 217.517 76.8087C217.12 76.4529 216.849 75.9996 216.739 75.5061C216.63 75.0127 216.686 74.5011 216.901 74.0363C217.116 73.5714 217.48 73.1741 217.947 72.8946C218.414 72.615 218.963 72.4658 219.525 72.4658C220.278 72.4658 221 72.7339 221.533 73.211C222.066 73.688 222.365 74.3351 222.365 75.0098Z" fill="white" stroke="#263238" stroke-linecap="round" stroke-linejoin="round"/>
<path d="M212.29 75.0098C212.29 75.513 212.123 76.0048 211.811 76.4232C211.499 76.8416 211.056 77.1676 210.537 77.3602C210.018 77.5527 209.447 77.6031 208.896 77.505C208.345 77.4068 207.839 77.1645 207.442 76.8087C207.045 76.4529 206.774 75.9996 206.665 75.5061C206.555 75.0127 206.611 74.5011 206.826 74.0363C207.041 73.5714 207.405 73.1741 207.872 72.8946C208.339 72.615 208.888 72.4658 209.45 72.4658C210.203 72.4658 210.926 72.7339 211.458 73.211C211.991 73.688 212.29 74.3351 212.29 75.0098Z" fill="white" stroke="#263238" stroke-linecap="round" stroke-linejoin="round"/>
<path d="M223.913 87.0684H216.529" stroke="#263238" stroke-width="2" stroke-linecap="round" stroke-linejoin="round"/>
<path d="M223.913 89.7523H216.529" stroke="#263238" stroke-width="2" stroke-linecap="round" stroke-linejoin="round"/>
<path d="M223.913 92.4362H216.529" stroke="#263238" stroke-width="2" stroke-linecap="round" stroke-linejoin="round"/>
<path d="M55.9551 156.443H111.853" stroke="#263238" stroke-width="2" stroke-linecap="round" stroke-linejoin="round"/>
<path d="M55.9551 160.393H111.853" stroke="#263238" stroke-width="2" stroke-linecap="round" stroke-linejoin="round"/>
<path d="M55.9551 164.412H100.032" stroke="#263238" stroke-width="2" stroke-linecap="round" stroke-linejoin="round"/>
<path d="M174.49 83.3478V83.6658" stroke="#263238" stroke-linecap="round" stroke-linejoin="round"/>
<path d="M174.49 85.5738V196.384" stroke="#263238" stroke-linecap="round" stroke-linejoin="round" stroke-dasharray="1 3"/>
<path d="M174.49 197.338V197.656" stroke="#263238" stroke-linecap="round" stroke-linejoin="round"/>
<path d="M45.2838 173.234H45.6378" stroke="#263238" stroke-linecap="round" stroke-linejoin="round"/>
<path d="M47.7617 173.234H225.29" stroke="#263238" stroke-linecap="round" stroke-linejoin="round" stroke-dasharray="1 2.99"/>
<path d="M226.355 173.234H226.709" stroke="#263238" stroke-linecap="round" stroke-linejoin="round"/>
<path d="M175.718 172.133H173.268V174.328H175.718V172.133Z" fill="white" stroke="#263238" stroke-linecap="round" stroke-linejoin="round"/>
<path d="M164.713 152.157H132.01" stroke="#263238" stroke-linecap="round" stroke-linejoin="round"/>
<path d="M165.345 165.703C165.345 165.703 165.345 152.087 148.362 152.087C131.378 152.087 131.35 165.703 131.35 165.703" stroke="#263238" stroke-linecap="round" stroke-linejoin="round"/>
<path d="M165.345 166.988C166.137 166.988 166.779 166.413 166.779 165.703C166.779 164.994 166.137 164.419 165.345 164.419C164.553 164.419 163.911 164.994 163.911 165.703C163.911 166.413 164.553 166.988 165.345 166.988Z" fill="#335D99" stroke="#263238" stroke-linecap="round" stroke-linejoin="round"/>
<path d="M129.93 165.703C129.93 165.452 130.013 165.206 130.169 164.997C130.325 164.788 130.547 164.625 130.807 164.528C131.066 164.432 131.352 164.407 131.627 164.456C131.902 164.505 132.155 164.626 132.354 164.804C132.553 164.982 132.688 165.209 132.743 165.455C132.797 165.702 132.769 165.958 132.662 166.19C132.554 166.423 132.372 166.621 132.139 166.761C131.905 166.901 131.631 166.975 131.35 166.975C130.973 166.975 130.612 166.841 130.346 166.603C130.08 166.364 129.93 166.041 129.93 165.703Z" fill="#335D99" stroke="#263238" stroke-linecap="round" stroke-linejoin="round"/>
<path d="M164.088 153.212H166.602V150.961H164.088V153.212Z" fill="#335D99" stroke="#263238" stroke-linecap="round" stroke-linejoin="round"/>
<path d="M147.105 153.212H149.618V150.961H147.105V153.212Z" fill="#335D99" stroke="#263238" stroke-linecap="round" stroke-linejoin="round"/>
<path d="M130.122 153.212H132.635V150.961H130.122V153.212Z" fill="#335D99" stroke="#263238" stroke-linecap="round" stroke-linejoin="round"/>
<path d="M76.2753 111.217V106.714L72.5194 106.428C72.2964 105.725 71.9844 105.046 71.5893 104.406L74.0175 101.824L70.4675 98.6436L67.5778 100.819C66.8656 100.46 66.1075 100.18 65.32 99.9856L64.9934 96.6148H59.9808L59.6542 99.9856C58.8687 100.18 58.1128 100.459 57.4035 100.819L54.5138 98.6436L50.9638 101.824L53.392 104.406C52.994 105.045 52.6818 105.724 52.4619 106.428L48.6989 106.714V111.217L52.4619 111.504C52.683 112.208 52.9952 112.887 53.392 113.526L50.9638 116.108L54.5138 119.288L57.4035 117.113C58.1083 117.471 58.8594 117.751 59.64 117.946L59.9666 121.317H64.9863L65.3129 117.946C66.0979 117.751 66.8536 117.471 67.5636 117.113L70.4533 119.288L74.0033 116.108L71.5751 113.526C71.9689 112.885 72.281 112.207 72.5052 111.504L76.2753 111.217ZM62.48 114.194C61.3257 114.194 60.1973 113.887 59.2376 113.313C58.2778 112.738 57.5298 111.922 57.0881 110.967C56.6463 110.011 56.5307 108.96 56.7559 107.946C56.9811 106.932 57.537 106 58.3532 105.269C59.1694 104.538 60.2093 104.04 61.3414 103.838C62.4735 103.637 63.647 103.74 64.7134 104.136C65.7798 104.532 66.6913 105.202 67.3326 106.061C67.9739 106.921 68.3162 107.932 68.3162 108.966C68.3162 110.352 67.7013 111.682 66.6068 112.663C65.5123 113.643 64.0279 114.194 62.48 114.194Z" fill="#335D99" stroke="#263238" stroke-linecap="round" stroke-linejoin="round"/>
<path d="M93.3437 121.304V118.226L90.7664 118.023C90.6181 117.541 90.406 117.078 90.1345 116.642L91.7959 114.874L89.3606 112.699L87.3868 114.187C86.8992 113.945 86.3823 113.753 85.8461 113.615L85.626 111.3H82.1896L81.9624 113.609C81.4262 113.746 80.9093 113.938 80.4217 114.181L78.4479 112.693L76.0126 114.868L77.6811 116.636C77.4044 117.07 77.1897 117.534 77.0421 118.016L74.4648 118.22V121.298L77.0421 121.495C77.1884 121.978 77.4031 122.441 77.6811 122.875L76.0126 124.656L78.4479 126.831L80.4217 125.343C80.9093 125.585 81.4262 125.778 81.9624 125.915L82.1896 128.218H85.626L85.8461 125.915C86.3823 125.778 86.8992 125.585 87.3868 125.343L89.3606 126.831L91.7959 124.656L90.17 122.882C90.4427 122.446 90.655 121.983 90.8019 121.501L93.3437 121.304ZM83.9078 123.339C83.1166 123.341 82.3428 123.132 81.6843 122.739C81.0259 122.346 80.5125 121.787 80.209 121.132C79.9056 120.477 79.8259 119.757 79.9799 119.062C80.1339 118.367 80.5147 117.728 81.0742 117.227C81.6336 116.726 82.3465 116.385 83.1226 116.247C83.8987 116.109 84.703 116.18 85.4337 116.452C86.1644 116.724 86.7886 117.184 87.2273 117.773C87.666 118.363 87.8994 119.056 87.898 119.765C87.8961 120.713 87.4751 121.621 86.7272 122.291C85.9793 122.961 84.9655 123.338 83.9078 123.339Z" fill="#335D99" stroke="#263238" stroke-linecap="round" stroke-linejoin="round"/>
<path d="M181.504 180.713H209.003" stroke="#263238" stroke-width="2" stroke-linecap="round" stroke-linejoin="round"/>
<path d="M181.504 184.663H209.003" stroke="#263238" stroke-width="2" stroke-linecap="round" stroke-linejoin="round"/>
<path d="M181.504 188.682H197.181" stroke="#263238" stroke-width="2" stroke-linecap="round" stroke-linejoin="round"/>
<path d="M145.273 190.323H130.796C129.855 190.323 128.952 189.988 128.286 189.392C127.62 188.795 127.246 187.986 127.246 187.143C127.246 186.3 127.62 185.491 128.286 184.894C128.952 184.298 129.855 183.963 130.796 183.963H145.273C146.215 183.963 147.118 184.298 147.783 184.894C148.449 185.491 148.823 186.3 148.823 187.143C148.823 187.986 148.449 188.795 147.783 189.392C147.118 189.988 146.215 190.323 145.273 190.323Z" fill="#335D99" stroke="#263238" stroke-linecap="round" stroke-linejoin="round"/>
<path d="M172.253 190.323H157.776C156.835 190.323 155.932 189.988 155.266 189.392C154.6 188.795 154.226 187.986 154.226 187.143C154.226 186.3 154.6 185.491 155.266 184.894C155.932 184.298 156.835 183.963 157.776 183.963H172.253C173.195 183.963 174.098 184.298 174.763 184.894C175.429 185.491 175.803 186.3 175.803 187.143C175.803 187.986 175.429 188.795 174.763 189.392C174.098 189.988 173.195 190.323 172.253 190.323Z" fill="#335D99" stroke="#263238" stroke-linecap="round" stroke-linejoin="round"/>
<path d="M214.214 122.093H183.514V149.594H214.214V122.093Z" fill="white" stroke="#263238" stroke-linecap="round" stroke-linejoin="round"/>
<path d="M183.514 122.093L214.214 149.594" stroke="#263238" stroke-linecap="round" stroke-linejoin="round"/>
<path d="M214.214 122.093L183.514 149.594" stroke="#263238" stroke-linecap="round" stroke-linejoin="round"/>
<path d="M195.555 90.8717V97.2889L192.396 100.119H185.232V90.8717H195.555Z" fill="white" stroke="#263238" stroke-linecap="round" stroke-linejoin="round"/>
<path d="M195.555 97.2889L192.396 100.119V97.2889H195.555Z" fill="white" stroke="#263238" stroke-linecap="round" stroke-linejoin="round"/>
<path d="M85.768 140.499V146.916L82.6085 149.753H75.4446V140.499H85.768Z" fill="white" stroke="#263238" stroke-linecap="round" stroke-linejoin="round"/>
<path d="M85.768 146.916L82.6085 149.753V146.916H85.768Z" fill="white" stroke="#263238" stroke-linecap="round" stroke-linejoin="round"/>
<path d="M46.7606 180.039V186.456L43.6011 189.286H36.4301V180.039H46.7606Z" fill="white" stroke="#263238" stroke-linecap="round" stroke-linejoin="round"/>
<path d="M46.7606 186.456L43.6011 189.286V186.456H46.7606Z" fill="white" stroke="#263238" stroke-linecap="round" stroke-linejoin="round"/>
<path d="M247.556 105.754H209.457V127.143H247.556V105.754Z" fill="#263238" stroke="#263238" stroke-linecap="round" stroke-linejoin="round"/>
<path d="M247.556 105.754H209.457V109.004H247.556V105.754Z" fill="#335D99" stroke="#263238" stroke-linecap="round" stroke-linejoin="round"/>
<path d="M213.341 111.745H223.082" stroke="white" stroke-linecap="round" stroke-linejoin="round"/>
<path d="M218.211 114.181H235.067" stroke="white" stroke-linecap="round" stroke-linejoin="round"/>
<path d="M216.06 116.452H221.023" stroke="white" stroke-linecap="round" stroke-linejoin="round"/>
<path d="M218.211 119.129H229.564" stroke="white" stroke-linecap="round" stroke-linejoin="round"/>
<path d="M213.341 121.559H223.082" stroke="white" stroke-linecap="round" stroke-linejoin="round"/>
<path d="M104.271 191.811H66.172V213.2H104.271V191.811Z" fill="#263238" stroke="#263238" stroke-linecap="round" stroke-linejoin="round"/>
<path d="M104.271 191.811H66.172V195.061H104.271V191.811Z" fill="#335D99" stroke="#263238" stroke-linecap="round" stroke-linejoin="round"/>
<path d="M70.0628 197.809H79.7969" stroke="white" stroke-linecap="round" stroke-linejoin="round"/>
<path d="M74.9263 200.238H91.7817" stroke="white" stroke-linecap="round" stroke-linejoin="round"/>
<path d="M72.775 202.509H77.7379" stroke="white" stroke-linecap="round" stroke-linejoin="round"/>
<path d="M74.9263 205.186H86.2792" stroke="white" stroke-linecap="round" stroke-linejoin="round"/>
<path d="M70.0628 207.622H79.7969" stroke="white" stroke-linecap="round" stroke-linejoin="round"/>
<path d="M118.57 36.888H83.567C83.1571 36.8897 82.7645 37.0363 82.4746 37.2959C82.1847 37.5556 82.0211 37.9073 82.0192 38.2745V52.9025C82.0211 53.2691 82.185 53.6201 82.475 53.8788C82.7651 54.1374 83.1577 54.2826 83.567 54.2826H99.258L101.047 60.0066L102.844 54.2826H118.57C118.979 54.2826 119.372 54.1374 119.662 53.8788C119.952 53.6201 120.116 53.2691 120.118 52.9025V38.2745C120.116 37.9073 119.952 37.5556 119.662 37.2959C119.373 37.0363 118.98 36.8897 118.57 36.888Z" fill="#335D99" stroke="#263238" stroke-linecap="round" stroke-linejoin="round"/>
<path d="M87.827 41.0729H114.274" stroke="#263238" stroke-width="2" stroke-linecap="round" stroke-linejoin="round"/>
<path d="M87.827 44.0748H114.274" stroke="#263238" stroke-width="2" stroke-linecap="round" stroke-linejoin="round"/>
<path d="M87.827 47.0767H114.274" stroke="#263238" stroke-width="2" stroke-linecap="round" stroke-linejoin="round"/>
<path d="M87.827 50.0786H107.757" stroke="#263238" stroke-width="2" stroke-linecap="round" stroke-linejoin="round"/>
<path d="M175.988 140.925C172.232 141.211 167.468 137.192 167.468 137.192C167.376 137.276 167.264 137.34 167.141 137.379C167.017 137.418 166.884 137.431 166.754 137.416C166.624 137.401 166.499 137.359 166.39 137.294C166.281 137.229 166.191 137.141 166.126 137.039C165.515 136.25 162.867 134.425 162.718 132.848C162.569 131.27 165.693 128.714 165.693 128.714C163.286 129.299 163.03 128.033 163.03 128.033C163.03 128.033 167.084 125.038 168.504 124.955C169.058 124.923 171.472 126.17 173.808 127.849C176.25 129.61 180.837 135.811 180.837 135.811C180.837 135.811 196.35 145.905 200.27 148.487C205.446 151.896 211.58 157.944 211.58 157.944C211.58 157.944 232.17 166.263 237.85 170.836L230.168 187.13C230.168 187.13 211.445 175.892 209.578 173.043C207.71 170.194 205.836 171.904 203.962 170.041C202.087 168.177 200.291 166.047 200.291 166.047C196.957 164.605 193.932 162.65 191.352 160.272C186.979 156.246 183.123 150.096 180.702 146.394C179.449 144.368 177.859 142.524 175.988 140.925Z" fill="white" stroke="#263238" stroke-linecap="round" stroke-linejoin="round"/>
<path d="M177.131 138.546C177.131 138.546 171.543 137.331 171.06 134.031C170.847 133.194 170.438 132.407 169.86 131.722C169.86 131.722 164.649 131.493 164.976 129.591L171.934 129.038C174.466 129.91 176.599 131.518 177.99 133.605" fill="white"/>
<path d="M177.131 138.546C177.131 138.546 171.543 137.331 171.06 134.031C170.847 133.194 170.438 132.407 169.86 131.722C169.86 131.722 164.649 131.493 164.976 129.591L171.934 129.038C174.466 129.91 176.599 131.518 177.99 133.605" stroke="#263238" stroke-linecap="round" stroke-linejoin="round"/>
<path d="M167.461 137.192C167.708 136.779 167.791 136.303 167.695 135.843C167.695 135.843 169.228 135.589 169.058 134.374C169.058 134.374 171.33 134.126 169.86 131.722" stroke="#263238" stroke-linecap="round" stroke-linejoin="round"/>
<path d="M169.058 134.374C169.058 134.374 165.998 132.345 165.657 131.417" stroke="#263238" stroke-linecap="round" stroke-linejoin="round"/>
<path d="M167.695 135.843C167.695 135.843 164.436 134.062 164.379 133.026" stroke="#263238" stroke-linecap="round" stroke-linejoin="round"/>
<path d="M168.44 126.698C168.44 126.698 167.404 128.364 165.686 128.714" stroke="#263238" stroke-linecap="round" stroke-linejoin="round"/>
<path d="M167.922 127.346C168.467 127.601 168.981 127.906 169.456 128.256" stroke="#263238" stroke-linecap="round" stroke-linejoin="round"/>
<path d="M286.925 183.677C278.891 180.631 270.604 178.152 262.139 176.261C249.671 173.647 229.479 171.313 229.479 171.313C229.479 171.313 235.031 222.066 233.569 225.119C232.106 228.171 223.33 238.424 223.33 238.424C223.33 238.424 270.822 255.011 279.101 256.422C287.38 257.834 283.063 232.095 283.063 232.095C283.063 232.095 291.81 199.38 286.925 183.677Z" fill="#263238"/>
<path d="M269.878 178.226C269.878 178.226 271.007 180.134 268.039 181.133C260.35 183.677 252.156 181.432 253.03 178.735C253.363 177.705 255.266 178.735 255.16 174.919C255.107 174.331 254.932 173.757 254.641 173.227C254.099 172.195 253.445 171.213 252.689 170.295C251.868 169.274 250.989 168.291 250.055 167.351C250.055 167.351 262.26 160.355 271.312 167.351C271.298 167.319 267.933 168.845 269.878 178.226Z" fill="white" stroke="#263238" stroke-linecap="round" stroke-linejoin="round"/>
<path d="M285.001 268.621C280.194 275.617 255.806 278.93 242.493 278.619C229.181 278.307 190.876 262.083 188.278 258.623C185.871 255.443 179.957 244.905 189.073 238.538C189.846 238.003 190.668 237.527 191.53 237.114C197.77 234.086 239.277 243.633 239.277 243.633C239.277 243.633 241.847 242.176 242.792 242.284C245.688 242.615 247.762 244.714 253.612 246.208C257.709 247.258 268.891 243.225 276.034 246.692C276.826 247.071 277.557 247.546 278.206 248.104C284.88 253.815 289.801 261.606 285.001 268.621Z" fill="#335D99"/>
<mask id="mask0_3_556" style="mask-type:luminance" maskUnits="userSpaceOnUse" x="184" y="236" width="103" height="43">
<path d="M285.001 268.621C280.194 275.617 255.806 278.93 242.493 278.619C229.181 278.307 190.876 262.083 188.278 258.623C185.871 255.443 179.957 244.905 189.073 238.538C189.846 238.003 190.668 237.527 191.53 237.114C197.77 234.086 239.277 243.633 239.277 243.633C239.277 243.633 241.847 242.176 242.792 242.284C245.688 242.615 247.762 244.714 253.612 246.208C257.709 247.258 268.891 243.225 276.034 246.692C276.826 247.071 277.557 247.546 278.206 248.104C284.88 253.815 289.801 261.606 285.001 268.621Z" fill="white"/>
</mask>
<g mask="url(#mask0_3_556)">
<path opacity="0.3" d="M276.034 246.692C268.714 246.253 262.189 247.627 257.631 250.037C252.227 252.899 226.71 263.908 226.71 263.908C226.767 262.725 228.187 260.34 228.187 260.34C225.787 258.432 219.511 256.938 219.511 256.938C214.647 253.217 195.371 242.119 189.073 238.538C189.846 238.003 190.668 237.527 191.53 237.114C197.77 234.086 239.277 243.633 239.277 243.633C239.277 243.633 241.847 242.176 242.792 242.284C245.688 242.615 247.762 244.714 253.612 246.208C257.73 247.258 268.891 243.225 276.034 246.692Z" fill="black" fill-opacity="0.7"/>
</g>
<path d="M285.001 268.621C280.194 275.617 255.806 278.93 242.493 278.619C229.181 278.307 190.876 262.083 188.278 258.623C185.871 255.443 179.957 244.904 189.073 238.538C189.846 238.003 190.668 237.527 191.53 237.114C197.77 234.086 239.277 243.633 239.277 243.633C239.277 243.633 241.847 242.176 242.792 242.284C245.688 242.615 247.762 244.714 253.612 246.208C257.709 247.258 268.891 243.225 276.034 246.692C276.826 247.071 277.557 247.546 278.206 248.104C284.88 253.815 289.801 261.606 285.001 268.621Z" stroke="#263238" stroke-linecap="round" stroke-linejoin="round"/>
<path d="M277.518 274.956L278.128 277.353C278.128 277.353 276.495 281.5 269.317 282.18C262.139 282.861 257.886 284.279 254.407 284.464C252.589 284.592 250.761 284.567 248.947 284.387L248.237 283.446L277.518 274.956Z" fill="white" stroke="#263238" stroke-linecap="round" stroke-linejoin="round"/>
<path d="M235.834 274.701L248.273 283.446C254.268 282.987 260.225 282.188 266.108 281.055C272.001 279.834 277.148 278.085 277.425 275.681C277.858 272.03 273.499 271.031 268.323 271.171C267.358 271.171 266.364 271.26 265.362 271.349C257.077 272.144 246.54 268.049 246.54 268.049L235.834 274.701Z" fill="#263238"/>
<mask id="mask1_3_556" style="mask-type:luminance" maskUnits="userSpaceOnUse" x="235" y="268" width="43" height="16">
<path d="M235.834 274.701L248.273 283.446C254.268 282.987 260.225 282.188 266.108 281.055C272.001 279.834 277.148 278.085 277.425 275.681C277.858 272.03 273.499 271.031 268.323 271.171C267.358 271.171 266.364 271.26 265.362 271.349C257.077 272.144 246.54 268.049 246.54 268.049L235.834 274.701Z" fill="white"/>
</mask>
<g mask="url(#mask1_3_556)">
<path opacity="0.3" d="M277.432 275.592C275.018 276.396 272.701 277.419 270.517 278.645C270.517 278.645 258.965 283.968 241.208 278.486L235.834 274.701L246.54 268.042C246.54 268.042 257.07 272.145 265.362 271.343C266.364 271.248 267.358 271.184 268.323 271.165C273.464 271.025 277.787 272.005 277.432 275.592Z" fill="black" fill-opacity="0.7"/>
</g>
<path d="M235.834 274.701L248.273 283.446C254.268 282.987 260.225 282.188 266.108 281.055C272.001 279.834 277.148 278.085 277.425 275.681C277.858 272.03 273.499 271.031 268.323 271.171C267.358 271.171 266.364 271.26 265.362 271.349C257.077 272.144 246.54 268.049 246.54 268.049L235.834 274.701Z" stroke="#263238" stroke-linecap="round" stroke-linejoin="round"/>
<path d="M247.428 278.148C245.184 278.473 247.648 282.6 250.687 281.328C253.726 280.056 249.671 277.818 247.428 278.148Z" fill="white"/>
<mask id="mask2_3_556" style="mask-type:luminance" maskUnits="userSpaceOnUse" x="246" y="278" width="6" height="4">
<path d="M247.428 278.148C245.184 278.473 247.648 282.6 250.687 281.328C253.726 280.056 249.671 277.818 247.428 278.148Z" fill="white"/>
</mask>
<g mask="url(#mask2_3_556)">
<path opacity="0.2" d="M251.638 280.673C250.013 280.496 248.399 280.243 246.803 279.916C246.377 279.109 246.476 278.282 247.428 278.148C249.309 277.868 252.476 279.427 251.638 280.673Z" fill="black" fill-opacity="0.7"/>
</g>
<path d="M247.428 278.148C245.184 278.473 247.648 282.6 250.687 281.328C253.726 280.056 249.671 277.818 247.428 278.148Z" stroke="#263238" stroke-linecap="round" stroke-linejoin="round"/>
<path d="M266.108 281.048C272.001 279.827 277.148 278.078 277.425 275.674C277.858 272.024 273.499 271.025 268.323 271.165C268.096 271.362 263.076 275.706 266.108 281.048Z" fill="white"/>
<mask id="mask3_3_556" style="mask-type:luminance" maskUnits="userSpaceOnUse" x="265" y="271" width="13" height="11">
<path d="M266.108 281.048C272.001 279.827 277.148 278.078 277.425 275.674C277.858 272.024 273.499 271.025 268.323 271.165C268.096 271.362 263.076 275.706 266.108 281.048Z" fill="white"/>
</mask>
<g mask="url(#mask3_3_556)">
<path opacity="0.3" d="M277.432 275.592C275.018 276.396 272.701 277.419 270.517 278.644C268.961 279.289 267.33 279.777 265.654 280.101C263.666 275.204 268.11 271.349 268.323 271.165C273.464 271.025 277.787 272.004 277.432 275.592Z" fill="black" fill-opacity="0.7"/>
</g>
<path d="M266.108 281.048C272.001 279.827 277.148 278.078 277.425 275.674C277.858 272.024 273.499 271.025 268.323 271.165C268.096 271.362 263.076 275.706 266.108 281.048Z" stroke="#263238" stroke-linecap="round" stroke-linejoin="round"/>
<path d="M261.905 276.514H261.94C262.021 276.517 262.102 276.506 262.178 276.481C262.254 276.457 262.324 276.419 262.383 276.369C262.442 276.32 262.49 276.261 262.524 276.195C262.558 276.129 262.577 276.058 262.579 275.986C262.78 274.423 263.526 272.957 264.709 271.795C264.766 271.744 264.812 271.683 264.843 271.617C264.874 271.55 264.889 271.479 264.889 271.407C264.889 271.335 264.874 271.263 264.843 271.197C264.812 271.13 264.766 271.07 264.709 271.019C264.594 270.917 264.438 270.86 264.276 270.86C264.114 270.86 263.959 270.917 263.843 271.019C262.451 272.371 261.586 274.092 261.379 275.922C261.365 276.062 261.412 276.202 261.51 276.312C261.608 276.423 261.749 276.495 261.905 276.514Z" fill="white" stroke="#263238" stroke-linecap="round" stroke-linejoin="round"/>
<path d="M259.441 276.66H259.491C259.572 276.662 259.652 276.649 259.727 276.623C259.802 276.596 259.871 276.557 259.929 276.507C259.987 276.456 260.034 276.396 260.066 276.33C260.098 276.263 260.115 276.192 260.116 276.119C260.256 274.531 260.913 273.015 262.004 271.756C262.064 271.702 262.11 271.636 262.14 271.564C262.17 271.493 262.183 271.416 262.179 271.34C262.174 271.263 262.151 271.188 262.113 271.12C262.074 271.052 262.02 270.991 261.954 270.942C261.888 270.894 261.811 270.858 261.729 270.837C261.646 270.817 261.56 270.812 261.475 270.822C261.391 270.833 261.309 270.859 261.237 270.9C261.164 270.94 261.101 270.994 261.053 271.057C259.785 272.504 259.031 274.259 258.887 276.094C258.881 276.234 258.935 276.371 259.038 276.476C259.141 276.581 259.285 276.647 259.441 276.66Z" fill="white" stroke="#263238" stroke-linecap="round" stroke-linejoin="round"/>
<path d="M256.495 276.367C256.575 276.374 256.656 276.367 256.733 276.346C256.81 276.325 256.882 276.29 256.944 276.244C257.006 276.198 257.057 276.141 257.094 276.077C257.132 276.013 257.155 275.943 257.162 275.871C257.354 273.963 259.185 271.464 259.207 271.419C259.297 271.297 259.329 271.147 259.297 271.003C259.265 270.859 259.172 270.732 259.036 270.65C258.901 270.57 258.735 270.541 258.575 270.569C258.416 270.598 258.275 270.682 258.184 270.802C258.099 270.911 256.154 273.531 255.934 275.744C255.923 275.818 255.929 275.894 255.951 275.966C255.974 276.038 256.013 276.105 256.065 276.163C256.118 276.222 256.183 276.27 256.257 276.305C256.33 276.34 256.411 276.361 256.495 276.367Z" fill="white" stroke="#263238" stroke-linecap="round" stroke-linejoin="round"/>
<path d="M253.711 276.107C253.766 276.113 253.82 276.113 253.875 276.107C253.955 276.095 254.031 276.069 254.1 276.031C254.169 275.993 254.229 275.943 254.276 275.883C254.322 275.824 254.356 275.757 254.373 275.686C254.391 275.615 254.393 275.542 254.379 275.471C253.946 273.13 256.374 271.127 256.395 271.108C256.476 271.006 256.515 270.883 256.508 270.759C256.5 270.634 256.446 270.516 256.354 270.422C256.262 270.329 256.138 270.266 256.001 270.244C255.864 270.221 255.723 270.241 255.6 270.3C255.479 270.395 252.646 272.723 253.193 275.668C253.219 275.78 253.283 275.882 253.375 275.96C253.468 276.038 253.585 276.09 253.711 276.107Z" fill="white" stroke="#263238" stroke-linecap="round" stroke-linejoin="round"/>
<path d="M250.687 275.452C250.753 275.461 250.82 275.461 250.886 275.452C251.038 275.418 251.171 275.334 251.257 275.216C251.343 275.097 251.375 274.954 251.347 274.816C250.815 272.73 253.108 270.364 253.136 270.364C253.243 270.254 253.296 270.11 253.286 269.965C253.275 269.82 253.201 269.684 253.08 269.588C253.02 269.539 252.949 269.502 252.873 269.478C252.797 269.454 252.717 269.444 252.636 269.448C252.555 269.452 252.477 269.471 252.404 269.502C252.332 269.534 252.267 269.578 252.213 269.632C252.1 269.747 249.473 272.437 250.147 275.083C250.186 275.185 250.258 275.275 250.354 275.34C250.451 275.406 250.566 275.445 250.687 275.452Z" fill="white" stroke="#263238" stroke-linecap="round" stroke-linejoin="round"/>
<path d="M186.73 271.368L185.842 273.696C185.842 273.696 186.978 277.977 194.036 279.325C201.093 280.673 205.154 282.505 208.562 283.001C210.356 283.297 212.177 283.441 214.001 283.433L214.818 282.562L186.73 271.368Z" fill="white" stroke="#263238" stroke-linecap="round" stroke-linejoin="round"/>
<path d="M228.187 275.038L214.796 282.562C208.887 281.542 203.056 280.189 197.337 278.511C191.622 276.743 186.687 274.517 186.687 272.1C186.687 268.424 191.139 267.845 196.272 268.468C197.231 268.583 198.211 268.742 199.198 268.926C207.341 270.497 218.297 267.413 218.297 267.413L228.187 275.038Z" fill="#263238"/>
<mask id="mask4_3_556" style="mask-type:luminance" maskUnits="userSpaceOnUse" x="186" y="267" width="43" height="16">
<path d="M228.187 275.038L214.796 282.562C208.887 281.542 203.056 280.189 197.337 278.511C191.622 276.743 186.687 274.517 186.687 272.1C186.687 268.424 191.139 267.845 196.272 268.468C197.231 268.583 198.211 268.742 199.198 268.926C207.341 270.497 218.297 267.413 218.297 267.413L228.187 275.038Z" fill="white"/>
</mask>
<g mask="url(#mask4_3_556)">
<path opacity="0.3" d="M228.187 275.038L220.313 279.49C213.928 277.714 208.329 274.182 204.31 269.397C209.056 269.303 213.767 268.642 218.318 267.432L228.187 275.038Z" fill="black" fill-opacity="0.7"/>
</g>
<path d="M228.187 275.038L214.796 282.562C208.887 281.542 203.056 280.189 197.337 278.511C191.622 276.743 186.687 274.517 186.687 272.1C186.687 268.424 191.139 267.845 196.272 268.468C197.231 268.583 198.211 268.742 199.198 268.926C207.341 270.497 218.297 267.413 218.297 267.413L228.187 275.038Z" stroke="#263238" stroke-linecap="round" stroke-linejoin="round"/>
<path d="M197.337 278.504C191.622 276.736 186.687 274.51 186.687 272.094C186.687 268.417 191.139 267.839 196.272 268.462C196.5 268.678 200.98 273.48 197.337 278.504Z" fill="white" stroke="#263238" stroke-linecap="round" stroke-linejoin="round"/>
<path d="M202.052 274.389H202.016C201.853 274.38 201.701 274.313 201.592 274.203C201.483 274.094 201.426 273.951 201.434 273.804C201.423 272.234 200.859 270.708 199.822 269.441C199.762 269.386 199.715 269.319 199.686 269.247C199.656 269.174 199.643 269.096 199.649 269.019C199.655 268.942 199.678 268.866 199.719 268.798C199.759 268.729 199.815 268.669 199.883 268.621C199.951 268.573 200.03 268.538 200.114 268.519C200.198 268.5 200.285 268.497 200.37 268.51C200.456 268.524 200.537 268.553 200.609 268.596C200.681 268.639 200.742 268.695 200.788 268.761C202.013 270.229 202.671 272.016 202.662 273.849C202.661 273.993 202.595 274.13 202.481 274.232C202.367 274.333 202.212 274.389 202.052 274.389Z" fill="white" stroke="#263238" stroke-linecap="round" stroke-linejoin="round"/>
<path d="M204.48 274.752H204.423C204.26 274.739 204.11 274.669 204.005 274.557C203.9 274.445 203.849 274.3 203.862 274.154C203.913 272.565 203.441 270.997 202.506 269.645C202.46 269.585 202.427 269.517 202.409 269.445C202.392 269.374 202.39 269.3 202.405 269.228C202.419 269.156 202.45 269.087 202.494 269.026C202.538 268.964 202.595 268.911 202.662 268.869C202.73 268.827 202.805 268.798 202.885 268.782C202.965 268.767 203.047 268.765 203.128 268.778C203.208 268.791 203.285 268.818 203.354 268.858C203.423 268.897 203.482 268.949 203.529 269.009C204.625 270.566 205.17 272.384 205.091 274.224C205.083 274.365 205.016 274.499 204.903 274.597C204.789 274.695 204.638 274.751 204.48 274.752Z" fill="white" stroke="#263238" stroke-linecap="round" stroke-linejoin="round"/>
<path d="M207.448 274.752C207.285 274.749 207.129 274.688 207.015 274.584C206.901 274.479 206.837 274.339 206.837 274.192C206.88 272.253 205.346 269.626 205.325 269.6C205.25 269.469 205.235 269.317 205.284 269.177C205.333 269.036 205.442 268.919 205.588 268.85C205.733 268.783 205.901 268.77 206.057 268.814C206.213 268.858 206.343 268.956 206.418 269.085C206.489 269.2 208.115 271.985 208.073 274.211C208.069 274.357 208.001 274.495 207.884 274.597C207.767 274.698 207.61 274.754 207.448 274.752Z" fill="white" stroke="#263238" stroke-linecap="round" stroke-linejoin="round"/>
<path d="M210.245 274.752H210.082C209.925 274.712 209.792 274.618 209.712 274.49C209.632 274.363 209.612 274.212 209.656 274.071C210.366 271.788 208.186 269.562 208.165 269.543C208.103 269.491 208.054 269.427 208.022 269.357C207.989 269.286 207.972 269.211 207.973 269.135C207.975 269.058 207.993 268.983 208.029 268.914C208.064 268.844 208.115 268.782 208.178 268.731C208.241 268.68 208.316 268.641 208.397 268.617C208.477 268.593 208.563 268.585 208.647 268.592C208.732 268.599 208.815 268.621 208.889 268.658C208.964 268.695 209.029 268.745 209.081 268.805C209.187 268.913 211.736 271.496 210.842 274.37C210.8 274.482 210.719 274.579 210.612 274.648C210.505 274.716 210.377 274.753 210.245 274.752Z" fill="white" stroke="#263238" stroke-linecap="round" stroke-linejoin="round"/>
<path d="M213.334 274.389C213.266 274.392 213.198 274.381 213.135 274.358C213.058 274.336 212.986 274.3 212.924 274.252C212.863 274.204 212.813 274.146 212.777 274.081C212.741 274.016 212.72 273.945 212.716 273.872C212.712 273.799 212.724 273.726 212.752 273.658C213.525 271.636 211.516 269.073 211.502 269.047C211.444 268.989 211.4 268.921 211.373 268.846C211.347 268.772 211.338 268.694 211.348 268.616C211.357 268.539 211.385 268.464 211.43 268.397C211.474 268.329 211.533 268.271 211.604 268.226C211.675 268.181 211.756 268.15 211.842 268.135C211.927 268.12 212.015 268.121 212.1 268.138C212.185 268.156 212.265 268.189 212.334 268.236C212.403 268.283 212.461 268.343 212.503 268.411C212.602 268.532 214.896 271.457 213.923 274.027C213.878 274.134 213.797 274.226 213.692 274.291C213.587 274.356 213.462 274.39 213.334 274.389Z" fill="white" stroke="#263238" stroke-linecap="round" stroke-linejoin="round"/>
<path d="M216.252 277.372C218.446 277.913 215.542 281.761 212.638 280.234C209.734 278.708 214.065 276.838 216.252 277.372Z" fill="white" stroke="#263238" stroke-linecap="round" stroke-linejoin="round"/>
<path d="M190.933 256.944C194.22 261.072 203.969 265.632 213.653 269.391C215.385 271.96 217.428 274.351 219.745 276.52C225.723 282.028 228.158 278.943 228.158 278.943C228.158 278.943 231.936 278.562 237.509 277.881C237.741 278.365 238.146 278.767 238.659 279.024C239.173 279.28 239.767 279.377 240.349 279.299C241.059 279.198 242.479 278.269 244.048 277.042C258.128 275.134 277.234 271.954 282.388 268.252" fill="#335D99"/>
<path d="M190.933 256.944C194.22 261.072 203.969 265.632 213.653 269.391C215.385 271.96 217.428 274.351 219.745 276.52C225.723 282.028 228.158 278.943 228.158 278.943C228.158 278.943 231.936 278.562 237.509 277.881C237.741 278.365 238.146 278.767 238.659 279.024C239.173 279.28 239.767 279.377 240.349 279.299C241.059 279.198 242.479 278.269 244.048 277.042C258.128 275.134 277.234 271.954 282.388 268.252" stroke="#263238" stroke-linecap="round" stroke-linejoin="round"/>
<path d="M276.9 249.083C274.465 246.685 272.029 246.577 266.917 246.902C266.917 246.902 253.576 250.718 244.268 255.736C234.96 260.754 221.385 266.077 221.385 266.077C221.385 266.077 217.246 265.002 214.363 266.077C214.363 266.077 212.34 266.217 213.696 269.384" stroke="#263238" stroke-linecap="round" stroke-linejoin="round"/>
<path d="M283.091 263.412C283.091 263.412 283.162 267.107 277.312 269.664" stroke="#263238" stroke-linecap="round" stroke-linejoin="round"/>
<path d="M218.566 247.995C218.566 247.995 227.796 253.974 229.649 257.917C231.464 258.602 233.215 259.412 234.889 260.34" stroke="#263238" stroke-linecap="round" stroke-linejoin="round"/>
<path d="M230.317 252.963C230.994 254.681 231.107 256.537 230.643 258.311" stroke="#263238" stroke-linecap="round" stroke-linejoin="round"/>
<path d="M228.187 249.083C228.69 249.738 229.131 250.43 229.507 251.15" stroke="#263238" stroke-linecap="round" stroke-linejoin="round"/>
<path d="M241.336 248.536C241.336 248.536 244.425 252.238 245.191 255.24" stroke="#263238" stroke-linecap="round" stroke-linejoin="round"/>
<path d="M258.539 270.898C259.688 270.837 260.831 270.71 261.962 270.516" stroke="#263238" stroke-linecap="round" stroke-linejoin="round"/>
<path d="M229.564 268.246C238.316 269.799 247.194 270.711 256.111 270.974" stroke="#263238" stroke-linecap="round" stroke-linejoin="round"/>
<path d="M292.037 212.163C292.037 212.163 290.369 238.239 288.402 239.734C286.435 241.228 283.333 241.693 277.461 242.132C271.589 242.57 245.617 243.995 245.617 243.995L242.82 236.522C242.82 236.522 256.629 235.25 262.757 233.247C267.376 231.832 272.103 230.714 276.9 229.901C276.9 229.901 275.736 223.344 275.736 220.52V207.241" fill="white"/>
<path d="M292.037 212.163C292.037 212.163 290.369 238.239 288.402 239.734C286.435 241.228 283.333 241.693 277.461 242.132C271.589 242.57 245.617 243.995 245.617 243.995L242.82 236.522C242.82 236.522 256.629 235.25 262.757 233.247C267.376 231.832 272.103 230.714 276.9 229.901C276.9 229.901 275.736 223.344 275.736 220.52V207.241" stroke="#263238" stroke-linecap="round" stroke-linejoin="round"/>
<path d="M286.925 183.677C293.251 187.168 295.119 195.239 292.932 212.469C292.932 212.469 294.799 214.504 292.037 215.521C292.037 215.521 281.692 212.055 276.886 214.446C272.079 216.838 273.336 211.146 273.336 211.146C273.336 211.146 271.355 195.297 275.736 192.428" fill="#263238"/>
<path d="M275.153 190.005C275.153 190.005 269.069 195.672 274.443 209.994C274.104 211.163 273.867 212.354 273.733 213.556C273.733 214.516 275.203 215.013 275.203 215.013" stroke="white" stroke-linecap="round" stroke-linejoin="round"/>
<path d="M268.039 199.602C268.039 199.602 268.479 206.598 273.322 209.632" stroke="white" stroke-linecap="round" stroke-linejoin="round"/>
<path d="M269.601 183.359C269.601 183.359 260.165 186.596 252.661 183.009C248.209 180.885 250.041 177.469 250.041 177.469" stroke="white" stroke-linecap="round" stroke-linejoin="round"/>
<path d="M201.746 249.096H253.108C254.268 249.096 255.423 248.961 256.544 248.695L266.676 246.316C266.816 246.284 266.94 246.211 267.029 246.108C267.118 246.006 267.166 245.88 267.166 245.75C267.166 245.594 267.096 245.443 266.972 245.332C266.849 245.221 266.681 245.159 266.506 245.159H199.624C199.45 245.161 199.284 245.224 199.161 245.334C199.039 245.445 198.97 245.595 198.97 245.75V246.609C198.97 247.269 199.263 247.901 199.783 248.367C200.304 248.834 201.01 249.096 201.746 249.096Z" fill="#757575" stroke="#263238" stroke-linecap="round" stroke-linejoin="round"/>
<path d="M196.67 246.806H248.173C248.375 246.814 248.576 246.778 248.758 246.699C248.94 246.621 249.097 246.504 249.216 246.357C249.335 246.211 249.412 246.041 249.439 245.862C249.467 245.683 249.444 245.5 249.373 245.331L239.824 212.049C239.696 211.64 239.429 211.278 239.059 211.012C238.69 210.747 238.238 210.591 237.765 210.567H186.247C186.045 210.56 185.844 210.597 185.662 210.677C185.481 210.756 185.323 210.874 185.205 211.02C185.086 211.167 185.01 211.337 184.982 211.517C184.955 211.696 184.977 211.879 185.047 212.049L194.604 245.331C194.732 245.74 195 246.103 195.371 246.367C195.742 246.632 196.196 246.786 196.67 246.806Z" fill="#999999" stroke="#263238" stroke-linecap="round" stroke-linejoin="round"/>
<path d="M188.065 211.75H187.092" stroke="#263238" stroke-linecap="round" stroke-linejoin="round"/>
<path d="M195.612 211.75H190.585" stroke="#263238" stroke-linecap="round" stroke-linejoin="round"/>
<path d="M246.924 242.602L238.489 213.232C238.362 212.824 238.096 212.462 237.728 212.196C237.36 211.93 236.909 211.774 236.437 211.75H196.748" stroke="#263238" stroke-linecap="round" stroke-linejoin="round"/>
<path d="M247.655 245.159L247.442 244.428" stroke="#263238" stroke-linecap="round" stroke-linejoin="round"/>
<path d="M212.155 229.526C212.19 229.795 212.252 230.062 212.34 230.321C212.993 232.324 215.087 233.546 217.011 233.037C218.936 232.528 219.965 230.493 219.312 228.489C218.659 226.486 216.55 225.265 214.626 225.774C214.401 225.835 214.185 225.919 213.98 226.022C214.086 226.701 213.97 227.394 213.646 228.016C213.322 228.637 212.804 229.162 212.155 229.526Z" fill="white" stroke="#263238" stroke-linecap="round" stroke-linejoin="round"/>
<path d="M234.889 167.154C230.43 166.721 228.002 162.924 225.318 162.333C223.821 162.012 222.354 161.586 220.931 161.061C220.931 161.061 220.008 158.173 218.623 159.153C217.239 160.132 215.421 181.731 217.203 181.05C218.985 180.37 218.992 182.92 218.992 182.92L235.542 195.983L249.416 173.978C249.416 173.978 239.348 167.592 234.889 167.154Z" fill="#263238"/>
<path d="M100.025 90.242V89.924H100.38" stroke="#263238" stroke-linecap="round" stroke-linejoin="round"/>
<path d="M102.467 89.924H162.533" stroke="#263238" stroke-linecap="round" stroke-linejoin="round" stroke-dasharray="0.98 2.93"/>
<path d="M163.57 89.924H163.925V90.242" stroke="#263238" stroke-linecap="round" stroke-linejoin="round"/>
<path d="M163.932 92.15V126.812" stroke="#263238" stroke-linecap="round" stroke-linejoin="round" stroke-dasharray="1 3"/>
<path d="M163.925 127.766V128.084H163.57" stroke="#263238" stroke-linecap="round" stroke-linejoin="round"/>
<path d="M161.489 128.084H101.423" stroke="#263238" stroke-linecap="round" stroke-linejoin="round" stroke-dasharray="0.98 2.93"/>
<path d="M100.38 128.084H100.025V127.766" stroke="#263238" stroke-linecap="round" stroke-linejoin="round"/>
<path d="M100.032 125.858V91.196" stroke="#263238" stroke-linecap="round" stroke-linejoin="round" stroke-dasharray="1 3"/>
<path d="M131.982 90.8653C132.562 90.8653 133.033 90.4439 133.033 89.924C133.033 89.4042 132.562 88.9828 131.982 88.9828C131.402 88.9828 130.931 89.4042 130.931 89.924C130.931 90.4439 131.402 90.8653 131.982 90.8653Z" fill="#335D99" stroke="#263238" stroke-linecap="round" stroke-linejoin="round"/>
<path d="M100.032 109.945C100.612 109.945 101.083 109.524 101.083 109.004C101.083 108.484 100.612 108.063 100.032 108.063C99.4515 108.063 98.9811 108.484 98.9811 109.004C98.9811 109.524 99.4515 109.945 100.032 109.945Z" fill="#335D99" stroke="#263238" stroke-linecap="round" stroke-linejoin="round"/>
<path d="M131.982 129.025C132.562 129.025 133.033 128.604 133.033 128.084C133.033 127.564 132.562 127.143 131.982 127.143C131.402 127.143 130.931 127.564 130.931 128.084C130.931 128.604 131.402 129.025 131.982 129.025Z" fill="#335D99" stroke="#263238" stroke-linecap="round" stroke-linejoin="round"/>
<path d="M163.932 109.945C164.512 109.945 164.983 109.524 164.983 109.004C164.983 108.484 164.512 108.063 163.932 108.063C163.352 108.063 162.881 108.484 162.881 109.004C162.881 109.524 163.352 109.945 163.932 109.945Z" fill="#335D99" stroke="#263238" stroke-linecap="round" stroke-linejoin="round"/>
<path d="M165.153 126.99H162.704V129.184H165.153V126.99Z" fill="#335D99" stroke="#263238" stroke-linecap="round" stroke-linejoin="round"/>
<path d="M165.153 88.8301H162.704V91.0243H165.153V88.8301Z" fill="#335D99" stroke="#263238" stroke-linecap="round" stroke-linejoin="round"/>
<path d="M101.253 126.99H98.8036V129.184H101.253V126.99Z" fill="#335D99" stroke="#263238" stroke-linecap="round" stroke-linejoin="round"/>
<path d="M101.253 88.8301H98.8036V91.0243H101.253V88.8301Z" fill="#335D99" stroke="#263238" stroke-linecap="round" stroke-linejoin="round"/>
<path d="M159.885 93.3012H104.271V124.955H159.885V93.3012Z" fill="white" stroke="#263238" stroke-linecap="round" stroke-linejoin="round"/>
<path d="M159.885 115.606L153.701 121.145L136.973 106.161L129.937 112.464L118.719 102.415L104.271 115.351V124.955H159.885V115.606Z" fill="#335D99" stroke="#263238" stroke-linecap="round" stroke-linejoin="round"/>
<path d="M148.362 105.805C150.53 105.805 152.288 104.23 152.288 102.288C152.288 100.345 150.53 98.7708 148.362 98.7708C146.193 98.7708 144.435 100.345 144.435 102.288C144.435 104.23 146.193 105.805 148.362 105.805Z" fill="#335D99" stroke="#263238" stroke-linecap="round" stroke-linejoin="round"/>
<path d="M237.85 172.992C237.85 172.992 233.59 180.096 233.086 190.965" stroke="white" stroke-linecap="round" stroke-linejoin="round"/>
<path d="M225.326 177.908C225.326 177.908 226.596 183.95 230.296 188.326" stroke="white" stroke-linecap="round" stroke-linejoin="round"/>
<path d="M242.82 202.839C242.82 202.839 249.21 221.64 263.09 227.173" stroke="white" stroke-linecap="round" stroke-linejoin="round"/>
<path d="M259.633 168.807C259.633 168.807 259.029 172.909 254.627 173.196C254.085 172.163 253.431 171.181 252.675 170.264C254.961 169.658 257.284 169.171 259.633 168.807Z" fill="#263238"/>
<path d="M269.012 169.093C269.012 169.093 276.375 169.901 279.456 161.048C282.537 152.195 280.116 145.523 267.933 142.311C261.173 140.531 254.443 141.962 251.979 146.547C249.892 150.471 250.878 153.734 250.403 155.05C249.863 156.526 244.879 157.779 244.879 158.79C244.879 159.623 247.641 161.048 247.641 161.048L246.831 163.248L247.591 163.611C247.591 163.611 246.171 168.565 246.831 170.314C247.3 171.586 259.775 172.121 260.747 168.953" fill="white"/>
<path d="M269.012 169.093C269.012 169.093 276.375 169.901 279.456 161.048C282.537 152.195 280.116 145.523 267.933 142.311C261.173 140.531 254.443 141.962 251.979 146.547C249.892 150.471 250.878 153.734 250.403 155.05C249.863 156.526 244.879 157.779 244.879 158.79C244.879 159.623 247.641 161.048 247.641 161.048L246.831 163.248L247.591 163.611C247.591 163.611 246.171 168.565 246.831 170.314C247.3 171.586 259.775 172.121 260.747 168.953" stroke="#263238" stroke-linecap="round" stroke-linejoin="round"/>
<path d="M252.05 149.759C252.05 149.759 254.485 150.306 255.153 151.451" stroke="#263238" stroke-linecap="round" stroke-linejoin="round"/>
<path d="M252.476 154.79C252.37 155.426 252.533 155.979 252.845 156.017C253.158 156.055 253.484 155.572 253.591 154.93C253.697 154.287 253.527 153.74 253.221 153.702C252.916 153.664 252.583 154.147 252.476 154.79Z" fill="#263238"/>
<path d="M247.591 163.611C247.591 163.611 251.553 164.972 253.03 164.152" stroke="#263238" stroke-linecap="round" stroke-linejoin="round"/>
<path d="M248.983 154.281C248.692 155.706 249.047 156.952 249.778 157.073C250.509 157.194 251.347 156.144 251.638 154.726C251.929 153.308 251.581 152.049 250.843 151.928C250.105 151.807 249.281 152.863 248.983 154.281Z" stroke="#263238" stroke-linecap="round" stroke-linejoin="round"/>
<path d="M279.783 147.037C279.19 144.46 277.537 142.176 275.153 140.639C272.496 138.967 269.453 137.852 266.25 137.376C266.25 137.376 268.6 138.298 269.495 139.513C269.495 139.513 263.41 135.417 256.182 138.107C248.954 140.798 249.856 147.787 249.856 147.787L250.907 145.956C250.907 145.956 250.786 148.137 252.064 148.938C252.447 147.87 252.969 146.845 253.619 145.886C253.619 145.886 255.536 151.044 260.811 152.793C260.453 151.979 260.423 151.08 260.726 150.249C260.726 150.249 263.651 155.915 262.799 158.682L263.729 160.132C263.729 160.132 267.088 157.086 269.821 159.623C271.39 161.086 266.818 166.619 266.165 166.619L268.927 170.251C268.927 170.251 275.828 171.135 279.804 164.438C283.78 157.741 282.807 154.898 282.807 154.898C282.807 154.898 284.106 156.526 284.227 157.442C284.241 157.429 285.42 150.236 279.783 147.037Z" fill="#263238"/>
<path d="M263.545 160.774C263.545 160.774 265.675 154.364 270.205 156.621C274.734 158.879 271.504 162.301 269.878 163.617C268.252 164.934 267.038 167.325 265.98 167.325C264.922 167.325 264.688 166.161 264.688 166.161" fill="white"/>
<path d="M263.545 160.774C263.545 160.774 265.675 154.364 270.205 156.621C274.734 158.879 271.504 162.301 269.878 163.617C268.252 164.934 267.038 167.325 265.98 167.325C264.922 167.325 264.688 166.161 264.688 166.161" stroke="#263238" stroke-linecap="round" stroke-linejoin="round"/>
<path d="M251.638 154.726L264.276 157.073" stroke="#263238" stroke-linecap="round" stroke-linejoin="round"/>
</svg>
